<svg width="269" height="48" viewBox="0 0 269 48" fill="none" xmlns="http://www.w3.org/2000/svg">
<path d="M21.52 25.008H12V38H0.8V3H23.76L22.36 11.96H12V16.664H21.52V25.008ZM40.3767 9.16C49.3367 9.16 53.8167 12.24 53.8167 18.4V38H48.2167L45.0247 34.808C43.942 36.0773 42.4674 37.0667 40.6007 37.776C38.734 38.4853 36.9607 38.84 35.2807 38.84C33.638 38.84 32.3127 38.7093 31.3047 38.448C30.2967 38.1867 29.3074 37.7387 28.3367 37.104C26.2087 35.76 25.1447 33.2587 25.1447 29.6C25.1447 22.88 30.222 19.52 40.3767 19.52H42.6167V17.504C41.422 17.4293 40.4327 17.392 39.6487 17.392C35.43 17.392 31.8087 17.896 28.7847 18.904L27.4407 10.896C31.174 9.73866 35.486 9.16 40.3767 9.16ZM36.4567 28.368V30.664H38.7527C40.3954 30.664 41.4407 30.4773 41.8887 30.104C42.374 29.7307 42.6167 29.2453 42.6167 28.648V26.016H40.3207C38.9767 26.016 37.9874 26.1653 37.3527 26.464C36.7554 26.7253 36.4567 27.36 36.4567 28.368ZM79.4301 29.6L80.1021 37.664C78.1608 38.448 75.6595 38.84 72.5981 38.84C67.3715 38.84 63.5821 37.6267 61.2301 35.2C58.9155 32.736 57.7581 29.0027 57.7581 24C57.7581 18.9973 58.9155 15.2827 61.2301 12.856C63.5821 10.392 67.3715 9.16 72.5981 9.16C75.8461 9.16 78.3475 9.552 80.1021 10.336L78.7581 17.952C76.7795 17.5413 75.2115 17.336 74.0541 17.336C71.2168 17.336 69.7981 18.3253 69.7981 20.304V30.328C70.8808 30.552 72.2621 30.664 73.9421 30.664C75.6595 30.664 77.4888 30.3093 79.4301 29.6ZM82.9013 17.224V10H85.7013V5.52L96.9013 2.72V10H100.765V17.224H96.9013V29.992C97.8719 30.1787 98.9733 30.3093 100.205 30.384L99.7013 38.616C94.5866 38.616 91.2639 38.336 89.7333 37.776C87.8293 37.104 86.6346 36.208 86.1493 35.088C85.8506 34.416 85.7013 33.632 85.7013 32.736V17.224H82.9013ZM115.62 10V30.664H117.356C118.7 30.664 119.67 30.5333 120.268 30.272C120.902 29.9733 121.22 29.32 121.22 28.312V10H132.42V38H126.82L123.572 34.808C121.332 37.496 118.14 38.84 113.996 38.84C110.673 38.84 108.246 38.1307 106.716 36.712C105.185 35.2933 104.42 32.9227 104.42 29.6V10H115.62ZM148.651 10V30.664H150.387C151.731 30.664 152.702 30.5333 153.299 30.272C153.934 29.9733 154.251 29.32 154.251 28.312V10H165.451V38H159.851L156.603 34.808C154.363 37.496 151.171 38.84 147.027 38.84C143.704 38.84 141.278 38.1307 139.747 36.712C138.216 35.2933 137.451 32.9227 137.451 29.6V10H148.651ZM171.042 10H176.642L179.722 13.136C181.925 11.12 184.688 9.79466 188.01 9.16L188.682 19.744C187.786 19.7813 186.61 20.0053 185.154 20.416C183.736 20.8267 182.765 21.3493 182.242 21.984V38H171.042V10ZM190.362 17.224V10H193.162V5.52L204.362 2.72V10H208.226V17.224H204.362V29.992C205.333 30.1787 206.434 30.3093 207.666 30.384L207.162 38.616C202.048 38.616 198.725 38.336 197.194 37.776C195.29 37.104 194.096 36.208 193.61 35.088C193.312 34.416 193.162 33.632 193.162 32.736V17.224H190.362ZM206.841 47.24V39.96L209.753 39.4C210.91 39.176 211.638 38.8587 211.937 38.448C212.273 38.0747 212.441 37.6453 212.441 37.16V11.4L223.641 10V38C223.641 41.024 222.894 43.32 221.401 44.888C219.907 46.456 217.761 47.24 214.961 47.24H206.841ZM213.057 8.208C212.235 7.57333 211.825 6.416 211.825 4.736C211.825 3.056 212.235 1.88 213.057 1.208C213.915 0.535999 215.577 0.199999 218.041 0.199999C220.542 0.199999 222.203 0.535999 223.025 1.208C223.883 1.88 224.313 3.056 224.313 4.736C224.313 6.416 223.883 7.57333 223.025 8.208C222.203 8.84266 220.542 9.16 218.041 9.16C215.577 9.16 213.915 8.84266 213.057 8.208ZM240.15 28.48V30.44C241.27 30.552 242.39 30.608 243.51 30.608C246.982 30.608 250.491 30.048 254.038 28.928L255.382 37.16C251.2 38.28 247.056 38.84 242.95 38.84C237.723 38.84 233.934 37.6267 231.582 35.2C229.267 32.736 228.11 29.0027 228.11 24C228.11 18.9973 229.267 15.2827 231.582 12.856C233.934 10.392 237.704 9.16 242.894 9.16C248.12 9.16 251.723 9.86933 253.702 11.288C255.68 12.7067 256.67 15.3573 256.67 19.24C256.67 22.5253 255.475 24.896 253.086 26.352C250.734 27.7707 246.422 28.48 240.15 28.48ZM240.15 19.688V21.984H242.446C243.79 21.984 244.76 21.8533 245.358 21.592C245.992 21.2933 246.31 20.64 246.31 19.632V17.336H244.014C242.67 17.336 241.68 17.4853 241.046 17.784C240.448 18.0453 240.15 18.68 240.15 19.688ZM263.99 38.352C262.787 38.352 261.79 37.956 260.998 37.164C260.235 36.372 259.854 35.3013 259.854 33.952C259.854 32.7787 260.25 31.796 261.042 31.004C261.863 30.1827 262.89 29.772 264.122 29.772C265.295 29.772 266.278 30.1827 267.07 31.004C267.862 31.796 268.258 32.7787 268.258 33.952C268.258 35.3013 267.862 36.372 267.07 37.164C266.307 37.956 265.28 38.352 263.99 38.352Z" fill="black"/>
</svg>
