<svg width="347" height="146" viewBox="0 0 347 146" fill="none" xmlns="http://www.w3.org/2000/svg">
<path d="M0 0H129V146H0V0Z" fill="#CBFC56"/>
<path d="M49.04 23V53.016H53.584C55.2053 53.016 56.3147 52.824 56.912 52.44C57.5093 52.0133 57.808 51.0747 57.808 49.624V23H70.608V45.464C70.608 49.0907 70.3733 52.0133 69.904 54.232C69.4347 56.4507 68.56 58.328 67.28 59.864C66 61.4 64.2507 62.4667 62.032 63.064C59.8133 63.6613 56.9333 63.96 53.392 63.96C49.8507 63.96 46.9707 63.6613 44.752 63.064C42.576 62.4667 40.848 61.4 39.568 59.864C38.288 58.328 37.4133 56.4507 36.944 54.232C36.4747 52.0133 36.24 49.0907 36.24 45.464V23H49.04Z" fill="black"/>
<path d="M88.235 31V54.616H90.219C91.755 54.616 92.8643 54.4667 93.547 54.168C94.2723 53.8267 94.635 53.08 94.635 51.928V31H107.435V63H101.035L97.323 59.352C94.763 62.424 91.115 63.96 86.379 63.96C82.5817 63.96 79.8083 63.1493 78.059 61.528C76.3097 59.9067 75.435 57.1973 75.435 53.4V31H88.235Z" fill="black"/>
<path d="M113.825 31H120.225L123.745 34.584C126.262 32.28 129.42 30.7653 133.217 30.04L133.985 42.136C132.961 42.1787 131.617 42.4347 129.953 42.904C128.332 43.3733 127.222 43.9707 126.625 44.696V63H113.825V31Z" fill="black"/>
<path d="M135.905 39.256V31H139.105V25.88L151.905 22.68V31H156.321V39.256H151.905V53.848C153.014 54.0613 154.273 54.2107 155.681 54.296L155.105 63.704C149.26 63.704 145.462 63.384 143.713 62.744C141.537 61.976 140.172 60.952 139.617 59.672C139.276 58.904 139.105 58.008 139.105 56.984V39.256H135.905Z" fill="black"/>
<path d="M154.738 73.56V65.24L158.066 64.6C159.388 64.344 160.22 63.9813 160.561 63.512C160.945 63.0853 161.137 62.5947 161.137 62.04V32.6L173.938 31V63C173.938 66.456 173.084 69.08 171.378 70.872C169.671 72.664 167.218 73.56 164.018 73.56H154.738ZM161.842 28.952C160.903 28.2267 160.434 26.904 160.434 24.984C160.434 23.064 160.903 21.72 161.842 20.952C162.823 20.184 164.722 19.8 167.538 19.8C170.396 19.8 172.295 20.184 173.234 20.952C174.215 21.72 174.706 23.064 174.706 24.984C174.706 26.904 174.215 28.2267 173.234 28.952C172.295 29.6773 170.396 30.04 167.538 30.04C164.722 30.04 162.823 29.6773 161.842 28.952Z" fill="black"/>
<path d="M192.805 52.12V54.36C194.085 54.488 195.365 54.552 196.645 54.552C200.613 54.552 204.624 53.912 208.677 52.632L210.213 62.04C205.434 63.32 200.698 63.96 196.005 63.96C190.032 63.96 185.701 62.5733 183.013 59.8C180.368 56.984 179.045 52.7173 179.045 47C179.045 41.2827 180.368 37.0373 183.013 34.264C185.701 31.448 190.01 30.04 195.941 30.04C201.914 30.04 206.032 30.8507 208.293 32.472C210.554 34.0933 211.685 37.1227 211.685 41.56C211.685 45.3147 210.32 48.024 207.589 49.688C204.901 51.3093 199.973 52.12 192.805 52.12ZM192.805 42.072V44.696H195.429C196.965 44.696 198.074 44.5467 198.757 44.248C199.482 43.9067 199.845 43.16 199.845 42.008V39.384H197.221C195.685 39.384 194.554 39.5547 193.829 39.896C193.146 40.1947 192.805 40.92 192.805 42.072Z" fill="black"/>
<path d="M60.88 110.152H50V125H37.2V85H63.44L61.84 95.24H50V100.616H60.88V110.152Z" fill="black"/>
<path d="M82.4305 92.04C92.6705 92.04 97.7905 95.56 97.7905 102.6V125H91.3905L87.7425 121.352C86.5052 122.803 84.8198 123.933 82.6865 124.744C80.5532 125.555 78.5265 125.96 76.6065 125.96C74.7292 125.96 73.2145 125.811 72.0625 125.512C70.9105 125.213 69.7798 124.701 68.6705 123.976C66.2385 122.44 65.0225 119.581 65.0225 115.4C65.0225 107.72 70.8252 103.88 82.4305 103.88H84.9905V101.576C83.6252 101.491 82.4945 101.448 81.5985 101.448C76.7772 101.448 72.6385 102.024 69.1825 103.176L67.6465 94.024C71.9132 92.7013 76.8412 92.04 82.4305 92.04ZM77.9505 113.992V116.616H80.5745C82.4518 116.616 83.6465 116.403 84.1585 115.976C84.7132 115.549 84.9905 114.995 84.9905 114.312V111.304H82.3665C80.8305 111.304 79.6998 111.475 78.9745 111.816C78.2918 112.115 77.9505 112.84 77.9505 113.992Z" fill="black"/>
<path d="M127.063 115.4L127.831 124.616C125.612 125.512 122.754 125.96 119.255 125.96C113.282 125.96 108.951 124.573 106.263 121.8C103.618 118.984 102.295 114.717 102.295 109C102.295 103.283 103.618 99.0373 106.263 96.264C108.951 93.448 113.282 92.04 119.255 92.04C122.967 92.04 125.826 92.488 127.831 93.384L126.295 102.088C124.034 101.619 122.242 101.384 120.919 101.384C117.676 101.384 116.055 102.515 116.055 104.776V116.232C117.292 116.488 118.871 116.616 120.791 116.616C122.754 116.616 124.844 116.211 127.063 115.4Z" fill="black"/>
<path d="M131.03 101.256V93H134.23V87.88L147.03 84.68V93H151.446V101.256H147.03V115.848C148.139 116.061 149.398 116.211 150.806 116.296L150.23 125.704C144.385 125.704 140.587 125.384 138.838 124.744C136.662 123.976 135.297 122.952 134.742 121.672C134.401 120.904 134.23 120.008 134.23 118.984V101.256H131.03Z" fill="black"/>
<path d="M168.423 93V116.616H170.406C171.942 116.616 173.052 116.467 173.734 116.168C174.46 115.827 174.822 115.08 174.822 113.928V93H187.622V125H181.223L177.51 121.352C174.95 124.424 171.302 125.96 166.566 125.96C162.769 125.96 159.996 125.149 158.247 123.528C156.497 121.907 155.622 119.197 155.622 115.4V93H168.423Z" fill="black"/>
<path d="M206.173 93V116.616H208.156C209.692 116.616 210.802 116.467 211.484 116.168C212.21 115.827 212.572 115.08 212.572 113.928V93H225.372V125H218.973L215.26 121.352C212.7 124.424 209.052 125.96 204.316 125.96C200.519 125.96 197.746 125.149 195.997 123.528C194.247 121.907 193.372 119.197 193.372 115.4V93H206.173Z" fill="black"/>
<path d="M231.762 93H238.163L241.682 96.584C244.2 94.28 247.357 92.7653 251.154 92.04L251.923 104.136C250.899 104.179 249.555 104.435 247.891 104.904C246.269 105.373 245.16 105.971 244.562 106.696V125H231.762V93Z" fill="black"/>
<path d="M253.842 101.256V93H257.043V87.88L269.842 84.68V93H274.259V101.256H269.842V115.848C270.952 116.061 272.21 116.211 273.618 116.296L273.043 125.704C267.197 125.704 263.4 125.384 261.651 124.744C259.475 123.976 258.109 122.952 257.555 121.672C257.213 120.904 257.043 120.008 257.043 118.984V101.256H253.842Z" fill="black"/>
<path d="M272.675 135.56V127.24L276.003 126.6C277.326 126.344 278.158 125.981 278.499 125.512C278.883 125.085 279.075 124.595 279.075 124.04V94.6L291.875 93V125C291.875 128.456 291.022 131.08 289.315 132.872C287.608 134.664 285.155 135.56 281.955 135.56H272.675ZM279.779 90.952C278.84 90.2267 278.371 88.904 278.371 86.984C278.371 85.064 278.84 83.72 279.779 82.952C280.76 82.184 282.659 81.8 285.475 81.8C288.334 81.8 290.232 82.184 291.171 82.952C292.152 83.72 292.643 85.064 292.643 86.984C292.643 88.904 292.152 90.2267 291.171 90.952C290.232 91.6773 288.334 92.04 285.475 92.04C282.659 92.04 280.76 91.6773 279.779 90.952Z" fill="black"/>
<path d="M310.742 114.12V116.36C312.022 116.488 313.302 116.552 314.582 116.552C318.55 116.552 322.561 115.912 326.615 114.632L328.151 124.04C323.372 125.32 318.636 125.96 313.943 125.96C307.969 125.96 303.639 124.573 300.951 121.8C298.305 118.984 296.983 114.717 296.983 109C296.983 103.283 298.305 99.0373 300.951 96.264C303.639 93.448 307.948 92.04 313.879 92.04C319.852 92.04 323.969 92.8507 326.23 94.472C328.492 96.0933 329.622 99.1227 329.622 103.56C329.622 107.315 328.257 110.024 325.526 111.688C322.838 113.309 317.91 114.12 310.742 114.12ZM310.742 104.072V106.696H313.367C314.903 106.696 316.012 106.547 316.694 106.248C317.42 105.907 317.783 105.16 317.783 104.008V101.384H315.159C313.623 101.384 312.492 101.555 311.767 101.896C311.084 102.195 310.742 102.92 310.742 104.072Z" fill="black"/>
<path d="M339.826 125.512C338.077 125.512 336.626 124.936 335.474 123.784C334.365 122.632 333.81 121.075 333.81 119.112C333.81 117.405 334.386 115.976 335.538 114.824C336.733 113.629 338.226 113.032 340.018 113.032C341.725 113.032 343.154 113.629 344.306 114.824C345.458 115.976 346.034 117.405 346.034 119.112C346.034 121.075 345.458 122.632 344.306 123.784C343.197 124.936 341.703 125.512 339.826 125.512Z" fill="black"/>
</svg>
