<svg width="155" height="48" viewBox="0 0 155 48" fill="none" xmlns="http://www.w3.org/2000/svg">
<path d="M12.16 3V29.264H16.136C17.5547 29.264 18.5253 29.096 19.048 28.76C19.5707 28.3867 19.832 27.5653 19.832 26.296V3H31.032V22.656C31.032 25.8293 30.8267 28.3867 30.416 30.328C30.0053 32.2693 29.24 33.912 28.12 35.256C27 36.6 25.4693 37.5333 23.528 38.056C21.5867 38.5787 19.0667 38.84 15.968 38.84C12.8693 38.84 10.3493 38.5787 8.408 38.056C6.504 37.5333 4.992 36.6 3.872 35.256C2.752 33.912 1.98667 32.2693 1.576 30.328C1.16533 28.3867 0.96 25.8293 0.96 22.656V3H12.16ZM46.4556 10V30.664H48.1916C49.5356 30.664 50.5063 30.5333 51.1036 30.272C51.7383 29.9733 52.0556 29.32 52.0556 28.312V10H63.2556V38H57.6556L54.4076 34.808C52.1676 37.496 48.9756 38.84 44.8316 38.84C41.509 38.84 39.0823 38.1307 37.5516 36.712C36.021 35.2933 35.2556 32.9227 35.2556 29.6V10H46.4556ZM68.8469 10H74.4469L77.5269 13.136C79.7295 11.12 82.4922 9.79466 85.8149 9.16L86.4869 19.744C85.5909 19.7813 84.4149 20.0053 82.9589 20.416C81.5402 20.8267 80.5695 21.3493 80.0469 21.984V38H68.8469V10ZM88.1669 17.224V10H90.9669V5.52L102.167 2.72V10H106.031V17.224H102.167V29.992C103.138 30.1787 104.239 30.3093 105.471 30.384L104.967 38.616C99.8522 38.616 96.5295 38.336 94.9989 37.776C93.0949 37.104 91.9002 36.208 91.4149 35.088C91.1162 34.416 90.9669 33.632 90.9669 32.736V17.224H88.1669ZM104.645 47.24V39.96L107.557 39.4C108.715 39.176 109.443 38.8587 109.741 38.448C110.077 38.0747 110.245 37.6453 110.245 37.16V11.4L121.445 10V38C121.445 41.024 120.699 43.32 119.205 44.888C117.712 46.456 115.565 47.24 112.765 47.24H104.645ZM110.861 8.208C110.04 7.57333 109.629 6.416 109.629 4.736C109.629 3.056 110.04 1.88 110.861 1.208C111.72 0.535999 113.381 0.199999 115.845 0.199999C118.347 0.199999 120.008 0.535999 120.829 1.208C121.688 1.88 122.117 3.056 122.117 4.736C122.117 6.416 121.688 7.57333 120.829 8.208C120.008 8.84266 118.347 9.16 115.845 9.16C113.381 9.16 111.72 8.84266 110.861 8.208ZM137.954 28.48V30.44C139.074 30.552 140.194 30.608 141.314 30.608C144.786 30.608 148.296 30.048 151.842 28.928L153.186 37.16C149.005 38.28 144.861 38.84 140.754 38.84C135.528 38.84 131.738 37.6267 129.386 35.2C127.072 32.736 125.914 29.0027 125.914 24C125.914 18.9973 127.072 15.2827 129.386 12.856C131.738 10.392 135.509 9.16 140.698 9.16C145.925 9.16 149.528 9.86933 151.506 11.288C153.485 12.7067 154.474 15.3573 154.474 19.24C154.474 22.5253 153.28 24.896 150.89 26.352C148.538 27.7707 144.226 28.48 137.954 28.48ZM137.954 19.688V21.984H140.25C141.594 21.984 142.565 21.8533 143.162 21.592C143.797 21.2933 144.114 20.64 144.114 19.632V17.336H141.818C140.474 17.336 139.485 17.4853 138.85 17.784C138.253 18.0453 137.954 18.68 137.954 19.688Z" fill="black"/>
</svg>
